<svg height="512" viewBox="0 0 54 60" width="512" xmlns="http://www.w3.org/2000/svg"><g id="013---Female-User" fill="none"><g id="Icons" transform="translate(1 1)"><path id="Shape" d="m43.88 24c-.82 9.02-6.35 11.32-8.31 11.85 1.94-2.97 2.53-5.43 1.98-8.13-.67-3.21-.04-3.25.25-6.35-.9980547.1259916-2.004799.1694722-3.01.13-9.48-.39-13.91-8.5-13.91-8.5-1.31 3.27-4.75 6.11-6.98 7.69.26 3.79 1.02 3.61.31 7.03-.52 2.55-.02 4.89 1.67 7.65-1.4457771 2.7917323-3.8598789 4.960513-6.79 6.1-1.99609373.6790681-4.1277014.8609928-6.21.53 4.97778743-4.9643814 6.88938889-12.2284669 5-19-3-12 1-18 5-20 .7502153-.37460368 1.5525322-.63417681 2.38-.77 1.9084255-.28546859 3.858687-.01826194 5.62.77 4.03-2.69 9.43-3.95 14-2 7 3 10 12 9 23z" fill="#e8edfc"/><path id="Shape" d="m43.88 24c-.82 9.02-6.35 11.32-8.31 11.85.5354071-.8034686.997277-1.653577 1.38-2.54 1.81-1.75 3.5-4.62 3.93-9.31 1-11-2-20-9-23-1.0618665-.44827915-2.1838582-.73804276-3.33-.86 2.1488482-.26258203 4.3290981.03362886 6.33.86 7 3 10 12 9 23z" fill="#cad9fc"/><path id="Shape" d="m51.88 53.02c-2.3992368 1.4034143-5.0095772 2.4097292-7.73 2.98-13.912 3.5-35.7 2.3-44.14-2.98h-.01s.88-4.02 4.88-4.02c7.22 0 11.32-3.14 13.03-4.88.3326405-.3336083.5287751-.7793689.55-1.25.0482821-1.6016154-.1541629-3.2009313-.6-4.74 2.52 3.2 6.14 6.9 9.67 5.48 2.387-.911 4.784-3.476 6.37-5.48-.4381916 1.5167097-.6405562 3.091781-.6 4.67.0174648.4872031.2215375.9490517.57 1.29 1.7 1.73 5.85 4.91 13.13 4.91 4 0 4.88 4.02 4.88 4.02z" fill="#cad9fc"/><g fill="#e8edfc"><path id="Shape" d="m48.88 53.02c-2.3992368 1.4034143-5.0095772 2.4097292-7.73 2.98-10.989728 2.5876863-22.430272 2.5876863-33.42 0-5.812-1.453-7.56-2.98-7.73-2.98 0 0 .88-4.02 4.88-4.02 7.22 0 11.32-3.14 13.03-4.88.3326405-.3336083.5287751-.7793689.55-1.25.0482821-1.6016154-.1541629-3.2009313-.6-4.74 2.52 3.2 6.14 6.9 9.67 5.48 1.0093761-.4171484 1.9447533-.9945835 2.77-1.71-.1612649.7789286.049453 1.5885292.57 2.19 1.7 1.73 5.85 4.91 13.13 4.91 4 0 4.88 4.02 4.88 4.02z"/><path id="Shape" d="m41.79 48.39c-.038.189-2.919 1.63-2.99 8.65-2.5509589.4278435-5.1258218.6983544-7.71.81 4.832-2.719 5.444-11.342 5.58-11.56 1.5824514.9711348 3.311387 1.6802686 5.12 2.1z"/><path id="Shape" d="m20.67 57.85c-2.5820515-.139351-5.1553635-.4096989-7.71-.81-.07-6.9-2.94-8.52-2.99-8.62 1.8159944-.4162619 3.5520594-1.1255491 5.14-2.1l.03.05s.75 8.79 5.53 11.48z"/><path id="Shape" d="m37.55 27.72c.756 3.713-.831 6.763-3.16 9.78-1.39 1.82-4.01 5-6.86 6.11-3.767 1.507-7.633-2.8-10.16-6.11-2.332-3.027-3.917-6.068-3.16-9.78.71-3.42-.05-3.24-.31-7.03 2.23-1.58 5.67-4.42 6.98-7.69 0 0 4.43 8.11 13.91 8.5 1.005201.0394722 2.0119453-.0040084 3.01-.13-.29 3.1-.92 3.14-.25 6.35z"/></g></g><g id="Icons_copy_2" fill="#fff" transform="translate(1 3)"><path id="Shape" d="m27.556 55.973c-4.3851227-.0339841-8.7602156-.4246054-13.082-1.168-8.568-1.514-11.292-3.785-11.474-3.785 0 0 .88-4.02 4.88-4.02 5.8 0 10.32-2.122 13.03-4.88.3326405-.3336083.5287751-.7793689.55-1.25.0482044-1.6009541-.1542411-3.1995993-.6-4.738-.7085237-.8844366-1.3697804-1.805723-1.981-2.76-.4229431.7690019-.913904 1.4985826-1.467 2.18.142.186.288.377.448.58.4457589 1.5384007.6482044 3.1370459.6 4.738-.0212249.4706311-.2173595.9163917-.55 1.25-2.71 2.758-7.234 4.88-13.03 4.88-4 0-4.88 4.02-4.88 4.02.182 0 2.906 2.271 11.474 3.785 5.3110428.9022081 10.6963294 1.2933295 16.082 1.168z"/><path id="Shape" d="m15.26.23c-.8274678.13582319-1.6297847.39539632-2.38.77-4 2-8 8-5 20 1.88938889 6.7715331-.02221257 14.0356186-5 19 1.15066426.192533 2.32311094.217794 3.481.075-.168-.022-.334-.046-.481-.075 4.9777874-4.9643814 6.8893889-12.2284669 5-19-3-12 1-18 5-20 .7483522-.37378689 1.5486181-.63301371 2.374-.769-.9919339-.15528077-2.0019626-.15561812-2.994-.001z"/></g><path id="Shape" d="m9.8 10.332-1.876-.694c.94621123-2.79514907 2.9150386-5.12873291 5.511-6.532l.894 1.788c-2.1401917 1.17815499-3.7574371 3.11999217-4.529 5.438z" fill="#fff"/><g fill="#428dff"><path id="Shape" d="m.479 54.868c5.3 3.318 14.807 4.61 21.136 4.975 3.4854679.2059081 6.9798816.2115841 10.466.017.023 0 .047-.007.07-.009 6.342-.358 15.934-1.652 21.259-4.983.3584679-.2239568.5374151-.6491065.447-1.062-.5878313-2.7747862-3.0208452-4.7712118-5.857-4.806-7.126 0-11.055-3.221-12.414-4.606-.17102-.164204-.27446-.3864217-.29-.623-.0337528-1.4147798.138724-2.8269336.512-4.192.273-.344.665-.81 1.386-1.871 2.223-.7 7.843-3.388 8.682-12.618 2.045-22.5-12.158-29.723-24.1-22.221-2.6941937-1.0810828-5.7162104-.99561893-8.345.236-.3197527.15969771-.5300187.47785053-.5515928.83461336-.021574.35676283.1488214.6979349.4470001.89500001.2981786.1970651.67884.22008436.9985927.06038663 2.2612628-1.00876948 4.8447372-1.00876948 7.106 0 .3309755.16497628.7259793.13382213 1.027-.081.068-.046 6.642-4.631 13.028-1.895 6.266 2.685 9.406 10.906 8.4 21.991-.514 5.649-2.92 8.447-5.039 9.827.8789827-1.9494708 1.1184157-4.1271208.684-6.221-.567-2.718-.139-2.794.181-5.284.46-.075.918-.147 1.395-.257.348334-.0803848.627323-.3404973.7318748-.6823557.1045517-.3418584.0187822-.7135263-.225-.975s-.6085408-.3730291-.9568748-.2926443c-6.9710306 1.7643733-14.2687857-1.2933453-17.9-7.5-.1856462-.339779-.5507532-.5418561-.9372504-.5187433s-.7249197.2672614-.8687496.6267433c-1.845 4.613-8.5 8.466-8.568 8.5-.3940621.2254282-.5868246.6880224-.4694404 1.1265697s.5154576.7429948.9694404.7414303c.364 0 .6-.185 1.2-.557.326 2.322.7 2.463.154 5.078-.5399244 2.7128087-.0018885 5.5292473 1.5 7.852-.8933404 1.487432-2.0674771 2.786896-3.457 3.826-1.8258724 1.2920125-4.01233659 1.976048-6.249 1.955 4.1677991-5.1576217 5.5899895-12.0097569 3.819-18.4.154 0-2.326-7.339-.052-13.425.16873071-.50711374-.07598855-1.05935632-.565-1.275-.2498063-.10962466-.53420485-.10910866-.78361171.00142176-.24940686.11053043-.44081348.3208785-.52738829.57957824-.8206868 2.3658041-1.18149702 4.8666975-1.063 7.368.10727443 2.4414255.45937315 4.865915 1.051 7.237 2.807 11.231-4.383 17.735-4.689 18.005-.28586562.2509313-.40461716.6423154-.30638408 1.0097877.09823308.3674724.39643901.647395.76938408.7222123.7334732.1291225 1.47728456.1903815 2.222.183 4.4562564.0672043 8.6270057-2.187091 11.012-5.952.689.964.785 1.053 1.029 1.362.382238 1.386846.5548153 2.8230797.512 4.261-.0130408.2217119-.1069769.4309332-.264.588-1.68 1.712-5.514 4.58-12.315 4.58-2.83558565.0340501-5.26688856 2.0333893-5.848 4.809-.08903704.4119247.08973476.8354579.447 1.059zm14.454 2.309c-.173-3.8-1.19-6.018-2.085-7.246.8533157-.2822703 1.6848634-.6265204 2.488-1.03.343 2.09 1.244 5.989 3.438 8.721-1.312-.122-2.598-.267-3.841-.445zm20.045.457c2.22-2.759 3.119-6.709 3.455-8.787.8099419.407283 1.6480997.755847 2.508 1.043-.9 1.222-1.943 3.454-2.115 7.306-1.245.176-2.535.319-3.848.438zm16.7-4.068c-3.4244879 1.6460848-7.0786305 2.7637709-10.838 3.315.271-4.166 1.7-5.886 2.246-6.4 1.6145727.3491934 3.2621031.5232 4.914.519 1.6427921-.0020784 3.1115931 1.0232054 3.676 2.566zm-29.67-37.6c3.6136237 4.9845639 9.5009731 7.8059773 15.65 7.5-.3 1.961-.688 2.563-.086 5.451.5 2.453-.049 4.661-1.836 7.381-1.644 2.5-4.753 6.281-7.576 7.38-.8238317.3264898-1.7411683.3264898-2.565 0-2.839-1.1-5.541-4.629-6.429-5.786-2.193-2.861-3.673-5.545-2.975-8.969s.046-3.6-.244-6.756c2.3925079-1.6653566 4.448329-3.7683404 6.059-6.198zm-2.386 29.858c.944-.961.9-2.049.812-3.413 4.668 4.656 8.2 4.675 12.891 0-.087 1.377-.13 2.4.834 3.384.7341584.7366142 1.541309 1.3966751 2.409 1.97-.228 1.756-1.274 7.941-4.807 10.108-3.2541003.1732973-6.5151879.1706268-9.769-.008-3.492-2.145-4.551-8.225-4.792-10.046.8724091-.5818043 1.6838562-1.2501929 2.422-1.995zm-13.742 5.176c1.6204097.0053686 3.23691558-.1591979 4.823-.491.571.549 1.945 2.279 2.215 6.35-3.71451281-.5511508-7.32411851-1.6617469-10.706-3.294.56153409-1.5413366 2.02756199-2.566517 3.668-2.565z"/><path id="Shape" d="m10.811 7.5c-.5522847 0-1-.44771525-1-1s.4477153-1 1-1 1 .44771525 1 1-.4477153 1-1 1z"/></g></g></svg>